<svg width="25" height="20" viewBox="0 0 25 20" fill="none" xmlns="http://www.w3.org/2000/svg">
<g clip-path="url(#clip0_1534_21791)">
<path d="M23.4565 9H1.54346C0.967169 9 0.5 9.33578 0.5 9.75C0.5 10.1642 0.967169 10.5 1.54346 10.5H23.4565C24.0328 10.5 24.5 10.1642 24.5 9.75C24.5 9.33578 24.0328 9 23.4565 9Z" fill="#A4A0A0"/>
<path d="M1.54346 4.5H23.4565C24.0328 4.5 24.5 4.16422 24.5 3.75C24.5 3.33578 24.0328 3 23.4565 3H1.54346C0.967169 3 0.5 3.33578 0.5 3.75C0.5 4.16422 0.967169 4.5 1.54346 4.5Z" fill="#A4A0A0"/>
<path d="M23.4565 15H1.54346C0.967169 15 0.5 15.3358 0.5 15.75C0.5 16.1642 0.967169 16.5 1.54346 16.5H23.4565C24.0328 16.5 24.5 16.1642 24.5 15.75C24.5 15.3358 24.0328 15 23.4565 15Z" fill="#A4A0A0"/>
</g>
<defs>
<clipPath id="clip0_1534_21791">
<rect width="24" height="20" fill="white" transform="translate(0.5)"/>
</clipPath>
</defs>
</svg>
