<svg width="17" height="16" viewBox="0 0 17 16" fill="none" xmlns="http://www.w3.org/2000/svg">
<path d="M7.37774 0.330074C7.47248 0.226094 7.58787 0.143029 7.71654 0.0861931C7.84522 0.0293569 7.98433 0 8.125 0C8.26567 0 8.40478 0.0293569 8.53345 0.0861931C8.66213 0.143029 8.77752 0.226094 8.87226 0.330074L9.44645 0.960878C9.57671 1.10377 9.74522 1.20632 9.932 1.25634C10.1188 1.30637 10.316 1.30178 10.5002 1.24312L11.313 0.984331C11.447 0.941704 11.5884 0.927508 11.7282 0.942649C11.8681 0.95779 12.0032 1.00194 12.125 1.07226C12.2467 1.14259 12.3525 1.23756 12.4355 1.35109C12.5185 1.46461 12.5769 1.59421 12.6069 1.73159L12.7889 2.56457C12.8302 2.7535 12.9249 2.92661 13.0616 3.06336C13.1984 3.20011 13.3715 3.29477 13.5604 3.3361L14.3934 3.51806C14.5308 3.54812 14.6604 3.60651 14.7739 3.68951C14.8874 3.7725 14.9824 3.87827 15.0527 4.00005C15.1231 4.12183 15.1672 4.25694 15.1824 4.39676C15.1975 4.53657 15.1833 4.678 15.1407 4.81202L14.8819 5.62478C14.8232 5.80903 14.8186 6.00623 14.8687 6.193C14.9187 6.37978 15.0212 6.54829 15.1641 6.67855L15.7949 7.25274C15.8989 7.34748 15.982 7.46287 16.0388 7.59154C16.0956 7.72022 16.125 7.85933 16.125 8C16.125 8.14067 16.0956 8.27978 16.0388 8.40846C15.982 8.53713 15.8989 8.65252 15.7949 8.74726L15.1641 9.32145C15.0212 9.45171 14.9187 9.62022 14.8687 9.807C14.8186 9.99377 14.8232 10.191 14.8819 10.3752L15.1407 11.188C15.1833 11.322 15.1975 11.4634 15.1824 11.6032C15.1672 11.7431 15.1231 11.8782 15.0527 12C14.9824 12.1217 14.8874 12.2275 14.7739 12.3105C14.6604 12.3935 14.5308 12.4519 14.3934 12.4819L13.5604 12.6639C13.3715 12.7052 13.1984 12.7999 13.0616 12.9366C12.9249 13.0734 12.8302 13.2465 12.7889 13.4354L12.6069 14.2684C12.5769 14.4058 12.5185 14.5354 12.4355 14.6489C12.3525 14.7624 12.2467 14.8574 12.125 14.9277C12.0032 14.9981 11.8681 15.0422 11.7282 15.0574C11.5884 15.0725 11.447 15.0583 11.313 15.0157L10.5002 14.7569C10.316 14.6982 10.1188 14.6936 9.932 14.7437C9.74522 14.7937 9.57671 14.8962 9.44645 15.0391L8.87226 15.6699C8.77752 15.7739 8.66213 15.857 8.53345 15.9138C8.40478 15.9706 8.26567 16 8.125 16C7.98433 16 7.84522 15.9706 7.71654 15.9138C7.58787 15.857 7.47248 15.7739 7.37774 15.6699L6.80355 15.0391C6.67329 14.8962 6.50478 14.7937 6.318 14.7437C6.13123 14.6936 5.93403 14.6982 5.74978 14.7569L4.93701 15.0157C4.803 15.0583 4.66157 15.0725 4.52176 15.0574C4.38194 15.0422 4.24683 14.9981 4.12505 14.9277C4.00327 14.8574 3.8975 14.7624 3.81451 14.6489C3.73151 14.5354 3.67312 14.4058 3.64306 14.2684L3.4611 13.4354C3.41977 13.2465 3.32511 13.0734 3.18836 12.9366C3.05161 12.7999 2.8785 12.7052 2.68957 12.6639L1.85659 12.4819C1.71921 12.4519 1.58961 12.3935 1.47609 12.3105C1.36256 12.2275 1.26759 12.1217 1.19726 12C1.12694 11.8782 1.08279 11.7431 1.06765 11.6032C1.05251 11.4634 1.0667 11.322 1.10933 11.188L1.36812 10.3752C1.42678 10.191 1.43137 9.99377 1.38134 9.807C1.33132 9.62022 1.22877 9.45171 1.08588 9.32145L0.455074 8.74726C0.351094 8.65252 0.268029 8.53713 0.211193 8.40846C0.154357 8.27978 0.125 8.14067 0.125 8C0.125 7.85933 0.154357 7.72022 0.211193 7.59154C0.268029 7.46287 0.351094 7.34748 0.455074 7.25274L1.08588 6.67855C1.22877 6.54829 1.33132 6.37978 1.38134 6.193C1.43137 6.00623 1.42678 5.80903 1.36812 5.62478L1.10933 4.81202C1.0667 4.678 1.05251 4.53657 1.06765 4.39676C1.08279 4.25694 1.12694 4.12183 1.19726 4.00005C1.26759 3.87827 1.36256 3.7725 1.47609 3.68951C1.58961 3.60651 1.71921 3.54812 1.85659 3.51806L2.68957 3.3361C2.8785 3.29477 3.05161 3.20011 3.18836 3.06336C3.32511 2.92661 3.41977 2.7535 3.4611 2.56457L3.64306 1.73159C3.67312 1.59421 3.73151 1.46461 3.81451 1.35109C3.8975 1.23756 4.00327 1.14259 4.12505 1.07226C4.24683 1.00194 4.38194 0.95779 4.52176 0.942649C4.66157 0.927508 4.803 0.941704 4.93701 0.984331L5.74978 1.24312C5.93403 1.30178 6.13123 1.30637 6.318 1.25634C6.50478 1.20632 6.67329 1.10377 6.80355 0.960878L7.37774 0.330074Z" fill="#158CE8"/>
<path d="M12.1154 6.36961L10.9719 5.22607L7.33828 8.85967L5.33103 6.85242L4.1875 7.99595L7.33828 11.1467L12.1154 6.36961Z" fill="white"/>
</svg>
