<svg width="20" height="21" viewBox="0 0 20 21" fill="none" xmlns="http://www.w3.org/2000/svg">
<path fill-rule="evenodd" clip-rule="evenodd" d="M10.3651 2.81501C10.2446 2.77693 10.1142 2.78586 10.0001 2.84001C9.94371 2.8664 9.89369 2.90463 9.85343 2.95208C9.81317 2.99953 9.7836 3.0551 9.76673 3.11501L9.37007 4.64334C9.23133 5.17742 9.02993 5.69323 8.77007 6.18001C8.3659 6.93584 7.75507 7.51667 7.1884 8.00501L5.99007 9.03834C5.8985 9.1175 5.82698 9.21721 5.78136 9.32932C5.73573 9.44143 5.7173 9.56274 5.72757 9.68334L6.40423 17.5108C6.42069 17.701 6.50776 17.878 6.64828 18.0071C6.7888 18.1362 6.97257 18.208 7.1634 18.2083H11.0376C13.6509 18.2083 15.8534 16.39 16.2759 13.9475L16.8634 10.5475C16.8825 10.4379 16.8773 10.3255 16.8484 10.2181C16.8195 10.1107 16.7675 10.011 16.6959 9.92581C16.6244 9.84064 16.5352 9.77212 16.4344 9.72506C16.3336 9.67799 16.2238 9.65352 16.1126 9.65334H11.7951C10.9809 9.65334 10.3617 8.92334 10.4934 8.12001L11.0459 4.75001C11.1223 4.28846 11.1008 3.816 10.9826 3.36334C10.9491 3.24365 10.886 3.1343 10.7993 3.04533C10.7125 2.95637 10.6047 2.89063 10.4859 2.85418L10.3651 2.81501ZM9.45673 1.71418C9.85982 1.52063 10.3217 1.48873 10.7476 1.62501L10.8684 1.66418C11.5159 1.87251 12.0209 2.38918 12.1926 3.04918C12.3534 3.67084 12.3834 4.31918 12.2792 4.95251L11.7267 8.32251C11.725 8.33245 11.7255 8.34264 11.7282 8.35237C11.7308 8.3621 11.7356 8.37113 11.7421 8.37883C11.7486 8.38653 11.7567 8.39271 11.7659 8.39695C11.775 8.40118 11.785 8.40337 11.7951 8.40334H16.1117C17.3617 8.40334 18.3084 9.53001 18.0951 10.7608L17.5076 14.1608C16.9759 17.2342 14.2259 19.4583 11.0376 19.4583H7.1634C6.65973 19.4579 6.17451 19.2687 5.80349 18.9281C5.43247 18.5875 5.20259 18.1201 5.15923 17.6183L4.48173 9.79084C4.45432 9.47297 4.50273 9.15313 4.62297 8.8576C4.74321 8.56207 4.93185 8.29929 5.1734 8.09084L6.3734 7.05751C6.91923 6.58751 7.3784 6.13168 7.66673 5.59084C7.88104 5.19153 8.04666 4.76795 8.16007 4.32918L8.55673 2.80168C8.61856 2.56583 8.73113 2.34632 8.88658 2.15849C9.04203 1.97065 9.23661 1.81902 9.45673 1.71418ZM2.4734 8.40418C2.63445 8.39713 2.79199 8.45259 2.91312 8.55897C3.03424 8.66534 3.10958 8.8144 3.1234 8.97501L3.93173 18.3383C3.94542 18.4778 3.93055 18.6185 3.88802 18.752C3.84548 18.8855 3.77618 19.0089 3.68435 19.1148C3.59252 19.2206 3.48008 19.3066 3.3539 19.3674C3.22772 19.4283 3.09046 19.4629 2.95048 19.469C2.81051 19.475 2.67077 19.4525 2.53979 19.4027C2.40882 19.353 2.28936 19.2771 2.18871 19.1796C2.08807 19.0821 2.00835 18.9652 1.95442 18.8359C1.90049 18.7066 1.87349 18.5676 1.87507 18.4275V9.02834C1.87492 8.8671 1.93709 8.71204 2.0486 8.59557C2.1601 8.47909 2.3123 8.41106 2.4734 8.40418Z" fill="#FF2C0C"/>
</svg>
