<svg width="110" height="66" viewBox="0 0 110 66" fill="none" xmlns="http://www.w3.org/2000/svg">
<path fill-rule="evenodd" clip-rule="evenodd" d="M51.187 10.2094C49.4574 10.7937 48.6534 13.044 47.3429 14.4313C44.1107 17.8538 40.6966 19.0257 36.6305 21.1713C31.4181 23.9486 28.681 27.7532 24.2892 31.5312C19.923 35.4131 15.2875 39.0286 10.4453 42.3168C27.343 41.204 46.6973 41.7132 67.0844 43.9998C67.0847 43.9385 67.0847 43.8793 67.0839 43.8213C67.0771 43.1072 67.0032 42.7067 66.9279 42.4564L66.8613 42.4388C66.4809 42.3388 65.9708 42.2044 65.5669 42.0881C65.0418 41.9366 64.3598 41.728 63.6076 41.4539C62.8529 41.1792 62.1111 40.8579 61.5513 40.501C60.5396 39.8562 60.168 39.2356 59.7243 38.4937C59.6144 38.3104 59.4986 38.1169 59.3952 37.9638C59.1474 37.5976 58.8111 37.1826 58.4453 36.7956C58.1163 36.4477 57.7754 36.1333 57.4715 35.9149C57.1987 35.7189 56.961 35.6021 56.7641 35.531C56.5689 35.4599 56.3801 35.4229 56.2466 35.3979L56.1934 35.3882C55.7261 35.3011 55.5999 35.2779 54.6504 34.8713C54.1989 34.6785 53.5396 34.3898 52.8876 34.042C52.1596 33.6537 51.3981 33.1772 50.7904 32.6239C50.1611 32.051 49.7071 31.4165 49.3891 30.7591C49.0256 30.0074 48.8446 29.232 48.784 28.4869C48.7306 27.8316 48.775 27.1979 48.902 26.5009C49.0155 25.8766 49.1934 25.2278 49.4254 24.4647C49.4792 24.287 49.6405 23.7763 49.8114 23.2345C50.1741 22.0851 50.5896 20.7679 50.9137 19.4478C51.1179 18.6166 51.2783 17.7958 51.3819 16.9217C51.4862 16.0409 51.5322 15.1313 51.5071 14.1342C51.4777 12.9618 51.3532 11.6225 51.187 10.2094Z" fill="#CB885A"/>
<path fill-rule="evenodd" clip-rule="evenodd" d="M99.8698 49.1012C98.1688 47.9391 95.4172 46.5656 94.4378 45.037C91.831 44.3657 89.9157 39.7713 88.6906 38.0863C87.127 35.9145 84.6636 35.1905 82.6308 33.5843C80.22 31.6758 78.7211 28.9113 76.3883 27.0028C74.7391 25.5872 72.7216 24.6705 70.5767 24.3696C67.8334 23.6282 65.3194 22.177 63.2911 20.1705C60.6842 17.9485 57.9383 12.8573 54.6067 10.8721C54.722 11.9856 54.8047 13.057 54.8298 14.0553C54.8601 15.2618 54.8092 16.3243 54.6916 17.3169C54.5728 18.3168 54.3855 19.2719 54.145 20.2514C53.8161 21.5907 53.3685 23.0103 52.9772 24.2491C52.8758 24.5705 52.7787 24.8779 52.6041 25.4525C52.4057 26.107 52.2565 26.6442 52.1725 27.1073C52.1013 27.4981 52.0762 27.8541 52.1061 28.2232C52.1348 28.576 52.2189 28.9389 52.3855 29.2839C52.527 29.5763 52.7314 29.8609 53.0176 30.1218C53.3968 30.4665 53.9207 30.7902 54.4365 31.0651C55.0279 31.3806 55.5708 31.6187 55.9386 31.7758C56.5477 32.0368 56.5995 32.0462 56.7903 32.0817L56.8437 32.0919C57.0853 32.1368 57.4319 32.2055 57.8829 32.3691C58.332 32.5329 58.8519 32.7815 59.3988 33.1748C59.8835 33.5239 60.3899 33.9852 60.8548 34.4772C61.3443 34.9949 61.8007 35.5596 62.1439 36.0668C62.331 36.344 62.4579 36.5551 62.5772 36.7552C62.8015 37.13 62.9895 37.444 63.3221 37.6559C63.6658 37.8748 64.1815 38.0937 64.726 38.292C65.273 38.4922 65.9327 38.6905 66.4767 38.8478C67.1672 39.047 67.4679 39.1258 67.693 39.1851C68.0257 39.2724 68.2505 39.3316 68.4441 39.3998C69.3964 39.7367 69.4963 39.9653 69.8504 40.7897L69.8525 40.7885L69.867 40.8211V40.8272L69.8698 40.835L69.8723 40.8338C70.061 41.2719 70.3892 42.0342 70.4066 43.7953C70.4082 43.9806 70.4066 44.1783 70.4018 44.386C78.194 45.3289 86.1241 46.5297 94.1149 47.9976C96.0516 48.3532 97.9687 48.7219 99.8698 49.1012Z" fill="#212121"/>
<path fill-rule="evenodd" clip-rule="evenodd" d="M69.1588 0.538696C81.94 0.538696 92.3014 11.0048 92.3014 23.9151C92.3014 27.5605 91.4748 31.0106 90.0009 34.0861C89.3113 33.4797 88.5559 32.9534 87.7429 32.4545C86.8084 31.8807 85.755 31.343 84.8965 30.664C83.9247 29.8951 83.0875 28.8671 82.2985 27.9141C81.182 26.5663 80.089 25.2621 78.7348 24.1478C76.6256 22.348 74.0636 21.1638 71.3379 20.7332C69.2792 20.1423 67.3919 19.0334 65.862 17.5202L65.765 17.4241L65.6611 17.3356C64.1619 16.0579 62.5361 13.6298 61.232 12.0607C59.2291 9.65204 56.8163 7.23976 53.6758 6.54242C57.7767 2.81093 63.205 0.538696 69.1588 0.538696Z" fill="#FC7361"/>
<path d="M9.12038 54.9367V57.238H6.09056V65.1974H3.54555V57.238H0.515625V54.9367H9.12038ZM21.0578 65.1974H18.0414L15.9273 62.1338H14.5133V65.1974H11.9683V54.9367H16.2639C17.5118 54.9367 18.4948 55.2494 19.2129 55.8748C19.9312 56.5003 20.2902 57.3846 20.2902 58.5279C20.2902 60.0328 19.7023 61.0735 18.5262 61.6501L21.0578 65.1974ZM14.5134 57.1794V59.8766H15.9946C16.5332 59.8766 16.9574 59.7616 17.2671 59.532C17.5769 59.3024 17.7317 58.9676 17.7317 58.5279C17.7317 58.098 17.5813 57.7657 17.2807 57.5312C16.9799 57.2967 16.5737 57.1794 16.0619 57.1794L14.5134 57.1794ZM31.2581 57.15H26.3969V59.0116H30.5444V61.1811H26.3969V62.984H31.2581V65.1974H23.8519V54.9367H31.2581V57.15ZM43.8284 65.1974H40.7716L38.1996 61.269H37.9304H36.8262V65.1974H34.2811V54.9367H36.8262V58.953H37.8226C38.7113 58.953 39.4048 58.5963 39.9031 57.883C40.4013 57.1696 40.6504 56.1875 40.6504 54.9367H43.1686C43.1686 56.2168 42.9643 57.3308 42.5558 58.2787C42.1474 59.2267 41.5617 59.9547 40.7985 60.4628L43.8284 65.1974Z" fill="#212121"/>
<path d="M51.0935 65.4465C49.63 65.4465 48.4519 64.953 47.5586 63.9661C46.6653 62.979 46.2188 61.6794 46.2188 60.067C46.2188 58.4448 46.6877 57.1403 47.6258 56.1532C48.564 55.1663 49.8007 54.6728 51.3357 54.6728C52.6464 54.6728 53.7462 55.0344 54.6349 55.7575C55.5236 56.4807 56.0847 57.4432 56.3181 58.6451H53.6385C53.2523 57.6191 52.4983 57.106 51.3762 57.106C50.6041 57.106 49.9824 57.3772 49.5112 57.9195C49.0398 58.4619 48.8042 59.1778 48.8042 60.067C48.8042 60.9562 49.0421 61.6745 49.5178 62.2217C49.9937 62.769 50.6131 63.0426 51.3762 63.0426C51.8699 63.0426 52.3098 62.9155 52.6959 62.6615C53.0818 62.4074 53.3511 62.0557 53.5037 61.6061H51.3223L51.2684 59.5979H56.3855V65.1973H54.4329L54.3386 64.1126C53.5037 65.0019 52.422 65.4465 51.0935 65.4465ZM64.0407 65.4612C62.6044 65.4612 61.4822 65.0337 60.6744 64.1786C59.8663 63.3235 59.4623 62.1338 59.4623 60.6094V54.9367H62.0344V60.6826C62.0344 61.3959 62.2161 61.9627 62.5798 62.383C62.9432 62.8031 63.4303 63.0133 64.0407 63.0133C64.6512 63.0133 65.1405 62.8031 65.5085 62.383C65.8766 61.9627 66.0607 61.3959 66.0607 60.6826V54.9367H68.6327V60.6094C68.6327 62.1338 68.2286 63.3235 67.4207 64.1786C66.6127 65.0337 65.4861 65.4612 64.0407 65.4612ZM71.8174 65.1973V54.9367H74.3624V65.1973H71.8174ZM77.6818 65.1973V54.9367H81.6003C83.2252 54.9367 84.5135 55.3983 85.465 56.3218C86.4166 57.2453 86.8924 58.4937 86.8924 60.067C86.8924 61.6402 86.4166 62.8886 85.465 63.8121C84.5135 64.7356 83.2252 65.1973 81.6003 65.1973L77.6818 65.1973ZM80.2268 62.8667H81.4926C82.3364 62.8667 83.0142 62.6102 83.5259 62.0971C84.0377 61.5841 84.2935 60.9074 84.2935 60.067C84.2935 59.2266 84.0377 58.5499 83.5259 58.0368C83.0142 57.5238 82.3364 57.2673 81.4926 57.2673H80.2268V62.8667ZM97.3891 57.15H92.5279V59.0116H96.6753V61.181H92.5279V62.9839H97.3891V65.1973H89.9828V54.9367H97.3891V57.15ZM109.488 65.1973H106.472L104.358 62.1338H102.944V65.1973H100.399V54.9367H104.694C105.942 54.9367 106.925 55.2494 107.643 55.8747C108.361 56.5002 108.72 57.3846 108.72 58.5279C108.72 60.0327 108.133 61.0735 106.956 61.6501L109.488 65.1973ZM102.944 57.1794V59.8765H104.425C104.963 59.8765 105.388 59.7616 105.697 59.5319C106.007 59.3023 106.162 58.9676 106.162 58.5279C106.162 58.0979 106.012 57.7656 105.711 57.5311C105.41 57.2966 105.004 57.1794 104.492 57.1794L102.944 57.1794Z" fill="#FC7361"/>
</svg>
