<svg width="84" height="50" viewBox="0 0 84 50" fill="none" xmlns="http://www.w3.org/2000/svg">
<g clip-path="url(#clip0_5120_72180)">
<path fill-rule="evenodd" clip-rule="evenodd" d="M39.0806 7.73431C37.7598 8.17702 37.1458 9.88174 36.1451 10.9328C33.6769 13.5256 31.0697 14.4134 27.9647 16.0388C23.9843 18.1428 21.8942 21.0251 18.5404 23.8873C15.2062 26.828 11.6664 29.5671 7.96875 32.0581C20.8725 31.2151 35.6521 31.6009 51.2204 33.3331C51.2207 33.2867 51.2207 33.2418 51.2201 33.1979C51.2148 32.6569 51.1584 32.3535 51.1009 32.1639L51.0501 32.1505C50.7596 32.0748 50.37 31.973 50.0616 31.8849C49.6606 31.7701 49.1398 31.6121 48.5654 31.4044C47.9891 31.1963 47.4227 30.9529 46.9951 30.6826C46.2226 30.1941 45.9388 29.7239 45.5999 29.1619C45.516 29.023 45.4277 28.8764 45.3486 28.7604C45.1595 28.483 44.9027 28.1686 44.6233 27.8754C44.3721 27.6118 44.1117 27.3737 43.8797 27.2082C43.6714 27.0597 43.4898 26.9712 43.3395 26.9174C43.1904 26.8636 43.0462 26.8355 42.9443 26.8166L42.9036 26.8092C42.5468 26.7432 42.4505 26.7256 41.7253 26.4176C41.3806 26.2715 40.8771 26.0528 40.3793 25.7894C39.8233 25.4952 39.2418 25.1342 38.7777 24.7151C38.2972 24.281 37.9505 23.8004 37.7076 23.3023C37.4301 22.7328 37.2918 22.1454 37.2455 21.581C37.2048 21.0845 37.2387 20.6044 37.3357 20.0764C37.4224 19.6035 37.5582 19.1119 37.7354 18.5338C37.7765 18.3992 37.8996 18.0123 38.0301 17.6018C38.3071 16.7311 38.6244 15.7332 38.8719 14.7331C39.0278 14.1034 39.1503 13.4816 39.2294 12.8194C39.309 12.1521 39.3442 11.463 39.3251 10.7077C39.3026 9.81952 39.2075 8.80492 39.0806 7.73431Z" fill="#FC7361"/>
<path fill-rule="evenodd" clip-rule="evenodd" d="M76.2648 37.1976C74.9658 36.3173 72.8646 35.2767 72.1167 34.1186C70.126 33.6101 68.6635 30.1295 67.7279 28.853C66.5339 27.2077 64.6528 26.6592 63.1005 25.4424C61.2595 23.9966 60.1149 21.9022 58.3335 20.4564C57.0741 19.384 55.5335 18.6895 53.8955 18.4616C51.8006 17.8999 49.8809 16.8005 48.3319 15.2804C46.3412 13.5971 44.2444 9.74013 41.7002 8.23621C41.7882 9.07971 41.8514 9.89138 41.8706 10.6477C41.8938 11.5617 41.8548 12.3667 41.7651 13.1186C41.6743 13.8761 41.5313 14.5997 41.3477 15.3417C41.0965 16.3563 40.7547 17.4318 40.4559 18.3703C40.3784 18.6138 40.3043 18.8467 40.171 19.2819C40.0194 19.7778 39.9055 20.1848 39.8414 20.5356C39.787 20.8316 39.7679 21.1013 39.7907 21.3809C39.8126 21.6482 39.8768 21.9232 40.004 22.1846C40.1121 22.406 40.2682 22.6216 40.4868 22.8193C40.7763 23.0804 41.1764 23.3256 41.5703 23.5339C42.0219 23.7729 42.4364 23.9533 42.7173 24.0724C43.1825 24.2701 43.222 24.2772 43.3677 24.3041L43.4085 24.3118C43.593 24.3458 43.8576 24.3978 44.202 24.5218C44.545 24.6459 44.942 24.8342 45.3596 25.1322C45.7298 25.3966 46.1165 25.7461 46.4715 26.1189C46.8453 26.5111 47.1938 26.9389 47.4559 27.3231C47.5988 27.5331 47.6957 27.693 47.7868 27.8446C47.958 28.1285 48.1016 28.3664 48.3556 28.527C48.6181 28.6928 49.0119 28.8586 49.4277 29.0089C49.8454 29.1605 50.3492 29.3108 50.7646 29.4299C51.2919 29.5808 51.5215 29.6405 51.6934 29.6854C51.9474 29.7515 52.1191 29.7964 52.267 29.8481C52.9942 30.1033 53.0705 30.2765 53.3409 30.901L53.3424 30.9001L53.3536 30.9248V30.9295L53.3557 30.9353L53.3576 30.9345C53.5017 31.2663 53.7523 31.8438 53.7656 33.178C53.7668 33.3184 53.7656 33.4681 53.7619 33.6255C59.7124 34.3398 65.7681 35.2495 71.8701 36.3616C73.349 36.6309 74.813 36.9103 76.2648 37.1976Z" fill="#212121"/>
<path fill-rule="evenodd" clip-rule="evenodd" d="M52.8077 0.408081C62.5679 0.408081 70.4803 8.33695 70.4803 18.1175C70.4803 20.8791 69.8491 23.4928 68.7236 25.8228C68.197 25.3634 67.6201 24.9647 66.9993 24.5867C66.2856 24.1521 65.4813 23.7447 64.8256 23.2302C64.0835 22.6478 63.4442 21.869 62.8417 21.147C61.9891 20.1259 61.1545 19.1379 60.1204 18.2937C58.5097 16.9303 56.5533 16.0332 54.4718 15.7069C52.8997 15.2593 51.4585 14.4192 50.2902 13.2729L50.2162 13.2001L50.1368 13.133C48.9919 12.1651 47.7504 10.3256 46.7546 9.13688C45.2251 7.31213 43.3826 5.48465 40.9844 4.95636C44.116 2.12947 48.2612 0.408081 52.8077 0.408081Z" fill="#FC7361"/>
<path d="M6.96153 41.6187V43.362H4.64785V49.3919H2.70439V43.362H0.390625V41.6187H6.96153ZM16.0774 49.3919H13.7739L12.1595 47.071H11.0798V49.3919H9.13633V41.6187H12.4166C13.3695 41.6187 14.1202 41.8556 14.6685 42.3293C15.2171 42.8032 15.4912 43.4731 15.4912 44.3393C15.4912 45.4793 15.0422 46.2678 14.1441 46.7046L16.0774 49.3919ZM11.0798 43.3177V45.361H12.2109C12.6223 45.361 12.9462 45.2739 13.1827 45.0999C13.4192 44.926 13.5374 44.6724 13.5374 44.3393C13.5374 44.0135 13.4226 43.7618 13.193 43.5842C12.9633 43.4065 12.6531 43.3177 12.2624 43.3177L11.0798 43.3177ZM23.8667 43.2954H20.1545V44.7057H23.3217V46.3492H20.1545V47.7151H23.8667V49.3919H18.211V41.6187H23.8667V43.2954ZM33.4658 49.3919H31.1316L29.1675 46.4159H28.9619H28.1187V49.3919H26.1751V41.6187H28.1187V44.6613H28.8796C29.5582 44.6613 30.0878 44.3911 30.4683 43.8507C30.8488 43.3102 31.039 42.5663 31.039 41.6187H32.962C32.962 42.5884 32.806 43.4324 32.494 44.1505C32.1822 44.8686 31.7349 45.4201 31.1521 45.8051L33.4658 49.3919Z" fill="#212121"/>
<path d="M39.0116 49.5807C37.894 49.5807 36.9944 49.2069 36.3122 48.4592C35.63 47.7114 35.2891 46.7268 35.2891 45.5053C35.2891 44.2764 35.6472 43.2881 36.3636 42.5404C37.08 41.7927 38.0244 41.4188 39.1965 41.4188C40.1975 41.4188 41.0373 41.6927 41.7159 42.2406C42.3946 42.7884 42.8231 43.5176 43.0013 44.4282H40.955C40.6602 43.6509 40.0843 43.2622 39.2274 43.2622C38.6379 43.2622 38.1631 43.4676 37.8033 43.8785C37.4433 44.2894 37.2634 44.8317 37.2634 45.5053C37.2634 46.179 37.4451 46.7232 37.8084 47.1377C38.1718 47.5523 38.6448 47.7596 39.2274 47.7596C39.6045 47.7596 39.9404 47.6633 40.2353 47.4708C40.53 47.2784 40.7356 47.0119 40.8521 46.6713H39.1863L39.1452 45.15H43.0528V49.392H41.5617L41.4897 48.5702C40.8521 49.2439 40.0261 49.5807 39.0116 49.5807ZM48.8986 49.5919C47.8018 49.5919 46.9448 49.268 46.3279 48.6202C45.7109 47.9724 45.4023 47.0711 45.4023 45.9162V41.6187H47.3664V45.9717C47.3664 46.5121 47.5052 46.9415 47.7829 47.2599C48.0605 47.5782 48.4325 47.7374 48.8986 47.7374C49.3648 47.7374 49.7384 47.5782 50.0194 47.2599C50.3005 46.9415 50.4411 46.5121 50.4411 45.9717V41.6187H52.4051V45.9162C52.4051 47.0711 52.0966 47.9724 51.4797 48.6202C50.8626 49.268 50.0023 49.5919 48.8986 49.5919ZM54.8371 49.392V41.6187H56.7806V49.392H54.8371ZM59.3154 49.392V41.6187H62.3077C63.5485 41.6187 64.5323 41.9685 65.2589 42.6681C65.9856 43.3677 66.349 44.3135 66.349 45.5053C66.349 46.6972 65.9856 47.6429 65.2589 48.3426C64.5323 49.0422 63.5485 49.3919 62.3077 49.3919L59.3154 49.392ZM61.2588 47.6263H62.2254C62.8698 47.6263 63.3874 47.432 63.7781 47.0433C64.169 46.6547 64.3643 46.142 64.3643 45.5053C64.3643 44.8687 64.169 44.356 63.7781 43.9673C63.3874 43.5787 62.8698 43.3844 62.2254 43.3844H61.2588V47.6263ZM74.3646 43.2955H70.6524V44.7058H73.8195V46.3493H70.6524V47.7151H74.3646V49.392H68.7089V41.6187H74.3646V43.2955ZM83.6038 49.392H81.3004L79.686 47.0711H78.6062V49.392H76.6628V41.6187H79.943C80.8959 41.6187 81.6466 41.8556 82.1949 42.3294C82.7435 42.8032 83.0176 43.4732 83.0176 44.3393C83.0176 45.4794 82.5687 46.2678 81.6706 46.7047L83.6038 49.392ZM78.6062 43.3178V45.361H79.7373C80.1487 45.361 80.4726 45.274 80.7091 45.1C80.9456 44.926 81.0638 44.6725 81.0638 44.3393C81.0638 44.0136 80.949 43.7619 80.7194 43.5842C80.4897 43.4066 80.1796 43.3178 79.7888 43.3178L78.6062 43.3178Z" fill="#FC7361"/>
</g>
<defs>
<clipPath id="clip0_5120_72180">
<rect width="84" height="50" fill="white"/>
</clipPath>
</defs>
</svg>
