<svg width="20" height="17" viewBox="0 0 20 17" fill="none" xmlns="http://www.w3.org/2000/svg">
<path fill-rule="evenodd" clip-rule="evenodd" d="M12 1.4965C12 2.32393 11.3295 3.00024 10.5 3.00024C9.6705 3.00024 9 2.3374 9 1.51147V1.4965C9 0.669072 9.6705 0.000244141 10.5 0.000244141C11.3295 0.000244141 12 0.669072 12 1.4965Z" fill="#A4A0A0"/>
<path fill-rule="evenodd" clip-rule="evenodd" d="M12 8.49725C12 9.32509 11.3295 10.0002 10.5 10.0002C9.6705 10.0002 9 9.33857 9 8.51072V8.49725C9 7.66941 9.6705 7.00024 10.5 7.00024C11.3295 7.00024 12 7.66941 12 8.49725Z" fill="#A4A0A0"/>
<path fill-rule="evenodd" clip-rule="evenodd" d="M12 15.4965C12 16.3239 11.3295 17.0002 10.5 17.0002C9.6705 17.0002 9 16.3374 9 15.51V15.4965C9 14.6691 9.6705 14.0002 10.5 14.0002C11.3295 14.0002 12 14.6691 12 15.4965Z" fill="#A4A0A0"/>
</svg>
