<svg width="16" height="16" viewBox="0 0 16 16" fill="none" xmlns="http://www.w3.org/2000/svg">
<path fill-rule="evenodd" clip-rule="evenodd" d="M8.73617 2.78459L9.95445 5.21842C10.0738 5.45736 10.3043 5.62303 10.5716 5.66137L13.2969 6.05366C13.9702 6.15088 14.2382 6.96695 13.7509 7.43455L11.7801 9.32821C11.5864 9.51443 11.4983 9.78212 11.5441 10.045L12.0092 12.7185C12.1237 13.3798 11.4198 13.8844 10.818 13.5715L8.38214 12.3084C8.14335 12.1845 7.85735 12.1845 7.61786 12.3084L5.182 13.5715C4.58015 13.8844 3.87626 13.3798 3.9915 12.7185L4.4559 10.045C4.50171 9.78212 4.41355 9.51443 4.21988 9.32821L2.24912 7.43455C1.76181 6.96695 2.02976 6.15088 2.70311 6.05366L5.42843 5.66137C5.69569 5.62303 5.92685 5.45736 6.04625 5.21842L7.26383 2.78459C7.5651 2.18281 8.4349 2.18281 8.73617 2.78459Z" stroke="#FFDB0C" stroke-width="0.5" stroke-linecap="round" stroke-linejoin="round"/>
</svg>
