<?xml version="1.0" encoding="UTF-8"?>
<!DOCTYPE svg PUBLIC "-//W3C//DTD SVG 1.1//EN" "http://www.w3.org/Graphics/SVG/1.1/DTD/svg11.dtd">
<!-- Creator: CorelDRAW -->
<svg xmlns="http://www.w3.org/2000/svg" xml:space="preserve" width="500px" height="500px" style="shape-rendering:geometricPrecision; text-rendering:geometricPrecision; image-rendering:optimizeQuality; fill-rule:evenodd; clip-rule:evenodd"
viewBox="0 0 506.598 506.598"
 xmlns:xlink="http://www.w3.org/1999/xlink">
 <defs>
  <style type="text/css">
   <![CDATA[
    .fil0 {fill:#212121}
    .fil2 {fill:#F9F9F9}
    .fil1 {fill:#FC7361}
   ]]>
  </style>
 </defs>
 <g id="Слой_x0020_1">
  <metadata id="CorelCorpID_0Corel-Layer"/>
  <path class="fil0" d="M253.299 0c139.869,0 253.299,113.43 253.299,253.299 0,139.869 -113.43,253.299 -253.299,253.299 -139.869,0 -253.299,-113.43 -253.299,-253.299 0,-139.869 113.43,-253.299 253.299,-253.299z"/>
  <g id="_128601688">
   <path id="_128601904" class="fil1" d="M236.447 191.935c-7.33782,2.45436 -10.7488,11.9053 -16.3085,17.7323 -13.7122,14.3742 -28.1963,19.2961 -45.4463,28.3076 -22.1131,11.6647 -33.7248,27.6441 -52.3569,43.5116 -18.5232,16.3036 -38.1887,31.4887 -58.7312,45.299 71.687,-4.67345 153.796,-2.53506 240.286,7.06851 0.001459,-0.257154 0.001459,-0.506041 -0.00194534,-0.749583 -0.0291649,-2.99929 -0.342704,-4.68123 -0.662078,-5.73269l-0.282428 -0.0738873c-1.61388,-0.42 -3.77804,-0.984371 -5.49157,-1.47291 -2.22735,-0.636318 -5.12067,-1.51229 -8.31198,-2.66339 -3.20151,-1.15402 -6.34858,-2.50346 -8.72371,-4.00214 -4.29186,-2.70811 -5.86831,-5.31463 -7.75101,-8.43059 -0.466182,-0.769999 -0.957151,-1.58277 -1.39611,-2.22589 -1.05097,-1.53805 -2.4777,-3.28075 -4.02984,-4.9063 -1.39562,-1.46124 -2.84179,-2.78151 -4.13095,-3.6988 -1.15743,-0.823465 -2.1661,-1.31395 -3.00124,-1.61242 -0.828329,-0.298472 -1.62895,-0.454028 -2.19527,-0.559026l-0.226044 -0.0408318c-1.98235,-0.365556 -2.51755,-0.463264 -6.54594,-2.17097 -1.91527,-0.809858 -4.71234,-2.02221 -7.4783,-3.48297 -3.08874,-1.6309 -6.31942,-3.63221 -8.89726,-5.95581 -2.66971,-2.40624 -4.59567,-5.07109 -5.94511,-7.83219 -1.54194,-3.15728 -2.30999,-6.41372 -2.56714,-9.54329 -0.226525,-2.75235 -0.0379189,-5.4138 0.500691,-8.34114 0.481734,-2.62208 1.23618,-5.3472 2.22055,-8.55212 0.228471,-0.746179 0.912429,-2.89138 1.6377,-5.16686 1.53854,-4.82755 3.30117,-10.3595 4.67637,-15.904 0.866242,-3.49124 1.5468,-6.93823 1.98624,-10.6098 0.442362,-3.69929 0.637777,-7.51962 0.531315,-11.7074 -0.124927,-4.9238 -0.653329,-10.5486 -1.35818,-16.484z"/>
   <path id="_128600392" class="fil2" d="M442.991 355.28c-7.21629,-4.88054 -18.8897,-10.6492 -23.0445,-17.0697 -11.0595,-2.81943 -19.1848,-22.1155 -24.3823,-29.1928 -6.63345,-9.12135 -17.0838,-12.162 -25.7079,-18.9082 -10.2277,-8.01545 -16.5865,-19.6267 -26.4832,-27.6421 -6.99657,-5.9456 -15.5555,-9.79558 -24.655,-11.0595 -11.6384,-3.11401 -22.3037,-9.20885 -30.9088,-17.636 -11.0595,-9.33232 -22.7086,-30.7153 -36.8427,-39.053 0.489024,4.67637 0.839995,9.17628 0.946452,13.3695 0.128818,5.0672 -0.0874996,9.52968 -0.586246,13.6986 -0.504096,4.1995 -1.2984,8.21087 -2.31874,12.3248 -1.39562,5.62476 -3.29436,11.5874 -4.95442,16.7902 -0.430208,1.34993 -0.841941,2.64103 -1.58277,5.05408 -0.841941,2.74895 -1.47485,5.00547 -1.83118,6.95039 -0.301872,1.6411 -0.408328,3.13637 -0.281456,4.68658 0.121528,1.48166 0.47833,3.0061 1.18514,4.45519 0.600344,1.22791 1.46756,2.42325 2.68186,3.51894 1.60854,1.44763 3.83103,2.80728 6.01949,3.96179 2.50881,1.32513 4.81199,2.32506 6.3724,2.9852 2.58416,1.09618 2.80388,1.13555 3.61325,1.28478l0.226525 0.0427822c1.0252,0.188606 2.4952,0.476871 4.40852,1.16423 1.90555,0.687844 4.11102,1.73201 6.43122,3.38381 2.05624,1.46611 4.20484,3.40373 6.17699,5.47019 2.07666,2.17436 4.01283,4.54609 5.46873,6.67622 0.793814,1.16423 1.33242,2.0509 1.83847,2.89138 0.951315,1.57402 1.74902,2.89283 3.16019,3.7829 1.45784,0.919233 3.64581,1.83847 5.95581,2.67166 2.32069,0.840482 5.11922,1.67367 7.42726,2.33429 2.92929,0.836596 4.20484,1.16763 5.16005,1.41652 1.41117,0.366524 2.36492,0.61541 3.18645,0.90173 4.04005,1.41507 4.46394,2.37513 5.96601,5.83768l0.00874895 -0.00534461 0.0617341 0.13708 0 0.0257656 0.011667 0.0325692 0.0106943 -0.00486334c0.800623,1.83992 2.19284,5.04144 2.26673,12.4381 0.00680868,0.778261 0,1.60854 -0.0204159,2.4811 33.0578,3.95984 66.7005,9.00323 100.6,15.1685 8.21622,1.49333 16.3498,3.04207 24.4148,4.63505z"/>
   <path id="_128602120" class="fil1" d="M312.696 151.318c54.2231,0 98.1805,43.9574 98.1805,98.1805 0,15.3105 -3.50679,29.8009 -9.75962,42.7178 -2.9254,-2.54672 -6.13032,-4.75707 -9.57927,-6.85268 -3.96471,-2.40964 -8.43351,-4.66811 -12.0759,-7.52012 -4.1227,-3.22922 -7.67421,-7.54685 -11.0216,-11.5495 -4.73665,-5.66075 -9.37365,-11.1382 -15.1185,-15.8185 -8.9483,-7.559 -19.8172,-12.5324 -31.3808,-14.3412 -8.73393,-2.48159 -16.7406,-7.139 -23.2312,-13.4944l-0.411251 -0.40347 -0.440897 -0.371873c-6.36026,-5.36616 -13.2577,-15.5643 -18.7901,-22.1544 -8.49719,-10.1164 -18.7332,-20.2479 -32.0565,-23.1767 17.3979,-15.6722 40.4268,-25.2155 65.685,-25.2155z"/>
  </g>
 </g>
</svg>
