<svg width="144" height="143" viewBox="0 0 144 143" fill="none" xmlns="http://www.w3.org/2000/svg">
<path d="M72.0004 143C32.5749 143 0.5 110.925 0.5 71.5004C0.5 32.0749 32.5749 0 72.0004 0C111.425 0 143.5 32.0749 143.5 71.5004C143.5 110.925 111.425 143 72.0004 143ZM72.0004 2.94803C34.2001 2.94803 3.44775 33.7006 3.44775 71.5007C3.44775 109.3 34.2001 140.053 72.0004 140.053C109.8 140.053 140.552 109.3 140.552 71.5007C140.552 33.7006 109.8 2.94803 72.0004 2.94803Z" fill="#FF270E"/>
<path d="M104.016 51.0965L92.4017 39.4829L71.998 59.8866L51.5941 39.4829L39.9805 51.0965L60.3841 71.5005L39.9805 91.9044L51.5941 103.518L71.998 83.1141L92.4017 103.518L104.016 91.9044L83.6116 71.5005L104.016 51.0965Z" fill="#FF270E"/>
</svg>
