<svg width="20" height="17" viewBox="0 0 20 17" fill="none" xmlns="http://www.w3.org/2000/svg">
<path fill-rule="evenodd" clip-rule="evenodd" d="M10.0008 5.6413C8.67084 5.6413 7.58984 6.7233 7.58984 8.0533C7.58984 9.3823 8.67084 10.4633 10.0008 10.4633C11.3308 10.4633 12.4128 9.3823 12.4128 8.0533C12.4128 6.7233 11.3308 5.6413 10.0008 5.6413ZM10.0008 11.9633C7.84384 11.9633 6.08984 10.2093 6.08984 8.0533C6.08984 5.8963 7.84384 4.1413 10.0008 4.1413C12.1578 4.1413 13.9128 5.8963 13.9128 8.0533C13.9128 10.2093 12.1578 11.9633 10.0008 11.9633Z" fill="#A4A0A0"/>
<mask id="mask0_4937_69776" style="mask-type:luminance" maskUnits="userSpaceOnUse" x="0" y="0" width="20" height="17">
<path fill-rule="evenodd" clip-rule="evenodd" d="M0 0.000183105H19.9998V16.1052H0V0.000183105Z" fill="white"/>
</mask>
<g mask="url(#mask0_4937_69776)">
<path fill-rule="evenodd" clip-rule="evenodd" d="M1.56975 8.05251C3.42975 12.1615 6.56275 14.6045 9.99975 14.6055C13.4368 14.6045 16.5697 12.1615 18.4298 8.05251C16.5697 3.94451 13.4368 1.50151 9.99975 1.50051C6.56375 1.50151 3.42975 3.94451 1.56975 8.05251ZM10.0017 16.1055H9.99775H9.99675C5.86075 16.1025 2.14675 13.2035 0.06075 8.34851C-0.02025 8.15951 -0.02025 7.94551 0.06075 7.75651C2.14675 2.90251 5.86175 0.00350586 9.99675 0.000505859C9.99875 -0.000494141 9.99875 -0.000494141 9.99975 0.000505859C10.0017 -0.000494141 10.0017 -0.000494141 10.0028 0.000505859C14.1388 0.00350586 17.8527 2.90251 19.9387 7.75651C20.0208 7.94551 20.0208 8.15951 19.9387 8.34851C17.8537 13.2035 14.1388 16.1025 10.0028 16.1055H10.0017Z" fill="#A4A0A0"/>
</g>
</svg>
