<svg width="25" height="25" viewBox="0 0 25 25" fill="none" xmlns="http://www.w3.org/2000/svg">
<path opacity="0.5" d="M13.0121 0.5H12.9574C6.34705 0.5 0.988281 5.86035 0.988281 12.4727V12.5273C0.988281 19.1397 6.34705 24.5 12.9574 24.5H13.0121C19.6224 24.5 24.9812 19.1397 24.9812 12.5273V12.4727C24.9812 5.86035 19.6224 0.5 13.0121 0.5Z" fill="#484134"/>
<path d="M20.4212 12.1995C20.2219 11.2956 19.3965 10.7096 18.5777 10.8903C18.2987 10.9517 18.0582 11.0955 17.8683 11.2923C16.7663 10.4918 15.2616 9.96289 13.5813 9.86283L14.3857 6.51294L16.7721 7.08387C16.8116 7.73636 17.3521 8.25347 18.0145 8.25347C18.6769 8.25347 19.2603 7.69516 19.2603 7.00736C19.2603 6.31955 18.7021 5.76123 18.0145 5.76123C17.5161 5.76123 17.0865 6.05468 16.8882 6.47847L14.2991 5.85877C14.0957 5.81 13.8915 5.93528 13.8419 6.13877L12.9517 9.84602C11.0772 9.85611 9.38589 10.3985 8.17208 11.267C8.1124 11.2115 8.04852 11.1602 7.97875 11.1148C7.27182 10.6633 6.29505 10.9299 5.79742 11.7093C5.29979 12.4896 5.46875 13.4877 6.17568 13.9392C6.21771 13.9661 6.26059 13.9897 6.3043 14.0115C6.27572 14.1856 6.26058 14.363 6.26058 14.5421C6.26058 17.1361 9.27915 19.239 13.003 19.239C16.7268 19.239 19.7453 17.1361 19.7453 14.5421C19.7453 14.3605 19.7293 14.1814 19.6999 14.0056C20.274 13.6718 20.5867 12.9445 20.4228 12.1995H20.4212ZM9.54561 13.454C9.54561 12.8629 10.0247 12.3837 10.6157 12.3837C11.2066 12.3837 11.6858 12.8629 11.6858 13.454C11.6858 14.0451 11.2066 14.5244 10.6157 14.5244C10.0247 14.5244 9.54561 14.0451 9.54561 13.454ZM15.4886 16.8334C15.1599 17.1319 14.2521 17.8281 12.9231 17.8407C12.9113 17.8407 12.8987 17.8407 12.8869 17.8407C11.5403 17.8407 10.6207 17.1378 10.2853 16.8334C10.1777 16.7358 10.1702 16.5693 10.2677 16.4626C10.3652 16.3549 10.5316 16.3474 10.6384 16.4449C10.9301 16.7106 11.7362 17.3269 12.9181 17.316C14.0671 17.3051 14.8514 16.7039 15.1355 16.4457C15.2431 16.3482 15.4087 16.3558 15.5062 16.4634C15.6037 16.571 15.5962 16.7367 15.4886 16.8342V16.8334ZM15.3591 14.5244C14.7682 14.5244 14.2891 14.0451 14.2891 13.454C14.2891 12.8629 14.7682 12.3837 15.3591 12.3837C15.9501 12.3837 16.4292 12.8629 16.4292 13.454C16.4292 14.0451 15.9501 14.5244 15.3591 14.5244Z" fill="white"/>
</svg>
