<svg width="25" height="25" viewBox="0 0 25 25" fill="none" xmlns="http://www.w3.org/2000/svg">
<path d="M12.5248 0H12.4679C5.58205 0 0 5.5837 0 12.4715V12.5285C0 19.4163 5.58205 25 12.4679 25H12.5248C19.4106 25 24.9926 19.4163 24.9926 12.5285V12.4715C24.9926 5.5837 19.4106 0 12.5248 0Z" fill="#FF0000"/>
<path fill-rule="evenodd" clip-rule="evenodd" d="M11.3568 15.9181C11.3419 15.9698 11.3279 16.0136 11.3165 16.0574C10.6555 18.6482 10.5819 19.2236 9.90242 20.4271C9.57845 20.999 9.21332 21.5412 8.80966 22.0597C8.76413 22.1184 8.72122 22.1937 8.63015 22.1753C8.53033 22.1543 8.52246 22.0641 8.51195 21.9844C8.40337 21.197 8.34295 20.4078 8.36922 19.6125C8.40337 18.5772 8.53121 18.2216 9.86565 12.6091C9.88491 12.5232 9.86302 12.4523 9.835 12.3752C9.5154 11.5133 9.45236 10.6383 9.73168 9.75197C10.3359 7.83731 12.5056 7.69104 12.8848 9.27024C13.1186 10.2468 12.5004 11.5256 12.0258 13.4157C11.6326 14.9748 13.4679 16.0836 15.0361 14.945C16.4827 13.8957 17.0439 11.3802 16.9371 9.59694C16.727 6.04177 12.8296 5.27363 10.3577 6.4184C7.52338 7.72958 6.87893 11.2436 8.15908 12.8499C8.32107 13.054 8.62665 13.1793 8.57324 13.386C8.49093 13.7074 8.41825 14.0315 8.32894 14.3512C8.2624 14.5894 7.88326 14.6761 7.64246 14.578C7.17051 14.3871 6.77736 14.0867 6.45863 13.6908C5.372 12.3445 5.06115 9.68189 6.49804 7.4274C8.0899 4.93029 11.0512 3.91954 13.7551 4.22609C16.9844 4.59308 19.0254 6.80028 19.4072 9.3044C19.5815 10.4448 19.4562 13.2572 17.8556 15.2454C16.0142 17.5297 13.0292 17.6812 11.6519 16.279C11.5459 16.1712 11.461 16.046 11.3568 15.9172V15.9181Z" fill="white"/>
</svg>
