<svg width="16" height="16" viewBox="0 0 16 16" fill="none" xmlns="http://www.w3.org/2000/svg">
<g clip-path="url(#clip0_4015_27413)">
<path d="M8.00065 10C7.82384 10 7.65427 9.92976 7.52925 9.80473C7.40422 9.67971 7.33399 9.51014 7.33399 9.33333C7.35874 8.89771 7.49127 8.47504 7.71968 8.10328C7.94809 7.73151 8.26524 7.42228 8.64265 7.20333C8.88927 7.06817 9.08667 6.85828 9.20646 6.60384C9.32625 6.3494 9.36227 6.06353 9.30932 5.78733C9.25797 5.52352 9.12901 5.28106 8.93897 5.09102C8.74893 4.90097 8.50646 4.77201 8.24265 4.72066C8.05007 4.68512 7.85203 4.69243 7.66259 4.74208C7.47316 4.79174 7.29699 4.88251 7.1466 5.00795C6.99622 5.13338 6.87531 5.29041 6.79247 5.46786C6.70964 5.64531 6.66691 5.83883 6.66732 6.03466C6.66732 6.21147 6.59708 6.38104 6.47206 6.50607C6.34703 6.63109 6.17746 6.70133 6.00065 6.70133C5.82384 6.70133 5.65427 6.63109 5.52925 6.50607C5.40422 6.38104 5.33399 6.21147 5.33399 6.03466C5.33392 5.64517 5.41918 5.26038 5.58376 4.90737C5.74835 4.55435 5.98827 4.24168 6.28665 3.99133C6.57182 3.75293 6.90368 3.57678 7.26093 3.47418C7.61818 3.37159 7.99293 3.3448 8.36114 3.39556C8.72935 3.44631 9.08289 3.57348 9.39906 3.7689C9.71523 3.96433 9.98705 4.22369 10.1971 4.53034C10.4071 4.837 10.5507 5.18418 10.6187 5.5496C10.6867 5.91503 10.6775 6.29062 10.5918 6.65229C10.5061 7.01396 10.3457 7.35372 10.1209 7.64975C9.89615 7.94579 9.61199 8.19157 9.28665 8.37133C9.11809 8.4752 8.97495 8.61554 8.86777 8.78202C8.76059 8.9485 8.6921 9.13689 8.66732 9.33333C8.66732 9.51014 8.59708 9.67971 8.47206 9.80473C8.34703 9.92976 8.17746 10 8.00065 10ZM8.52932 15.84C9.96932 15.2613 14.6673 12.986 14.6673 8.02866V4.58133C14.6681 3.88067 14.4477 3.19764 14.0376 2.62954C13.6275 2.06143 13.0486 1.63722 12.3833 1.41733L8.21065 0.0339958C8.07443 -0.011983 7.92688 -0.011983 7.79065 0.0339958L3.61799 1.41733C2.95273 1.63722 2.37382 2.06143 1.96372 2.62954C1.55362 3.19764 1.33325 3.88067 1.33399 4.58133V8.02866C1.33399 12.4033 6.00399 15.0793 7.43599 15.7953C7.60911 15.8996 7.80091 15.9691 8.00065 16C8.18529 15.98 8.36457 15.9257 8.52932 15.84ZM11.9633 2.68266C12.3623 2.81494 12.7095 3.06958 12.9556 3.41042C13.2016 3.75126 13.334 4.16096 13.334 4.58133V8.02866C13.334 12.1507 9.27599 14.1027 8.03199 14.6027C6.77332 13.9733 2.66732 11.6393 2.66732 8.02866V4.58133C2.66726 4.16096 2.79967 3.75126 3.04572 3.41042C3.29178 3.06958 3.63897 2.81494 4.03799 2.68266L8.00065 1.36933L11.9633 2.68266ZM8.00065 11.3333C7.8688 11.3333 7.73991 11.3724 7.63027 11.4457C7.52064 11.5189 7.43519 11.6231 7.38473 11.7449C7.33428 11.8667 7.32107 12.0007 7.3468 12.1301C7.37252 12.2594 7.43601 12.3782 7.52925 12.4714C7.62248 12.5646 7.74127 12.6281 7.87059 12.6539C7.99991 12.6796 8.13396 12.6664 8.25578 12.6159C8.37759 12.5655 8.48171 12.48 8.55497 12.3704C8.62822 12.2607 8.66732 12.1319 8.66732 12C8.66732 11.8232 8.59708 11.6536 8.47206 11.5286C8.34703 11.4036 8.17746 11.3333 8.00065 11.3333Z" fill="#A4A0A0"/>
</g>
<defs>
<clipPath id="clip0_4015_27413">
<rect width="16" height="16" fill="white"/>
</clipPath>
</defs>
</svg>
